<?xml version="1.0" encoding="utf-8"?>
<!-- Generator: Adobe Illustrator 22.1.0, SVG Export Plug-In . SVG Version: 6.00 Build 0)  -->
<svg version="1.1" id="Layer_1" xmlns="http://www.w3.org/2000/svg" xmlns:xlink="http://www.w3.org/1999/xlink" x="0px" y="0px"
	 width="793.3px" height="264.9px" viewBox="0 0 793.3 264.9" style="enable-background:new 0 0 793.3 264.9;" xml:space="preserve"
	>
<style type="text/css">
	.st0{opacity:0.1;}
	.st1{fill:#76102E;}
	.st2{opacity:0.8;fill:#E1CBD0;}
	.st3{fill:url(#SVGID_1_);}
	.st4{fill:#F47B20;}
</style>
<g>
	<g>
		<g class="st0">
			<path d="M566.6,9c-60,0-114.3,7.9-154.3,20.7h1.2l9.4,3.6c11.3-3.8,23.9-7.1,37.6-9.8l7.5,15l0.3-16.5c25.3-4.5,53.9-7,84.2-7
				c1.8,0,3.6,0,5.4,0l3.1,15.7l4.7-15.6c24.6,0.6,47.8,2.8,68.9,6.4l2.4,16l5.2-14.6c24.9,4.7,46.3,11.4,62.7,19.4l-4,11.9
				l11.6-7.6l-1.5-1.1c18,10,28.4,21.8,28.4,34.5c0,11.1-8,21.5-22,30.6l0.3-1.1l-18.2-0.6l10.6,6.1c-2.7,3.8-40.7,23.7-64.4,35.1
				v12.4c73.6-14.8,142.5-55.9,142.5-80.2C788.3,41.9,689,9,566.6,9z"/>
		</g>
		<g>
			<g>
				<path class="st1" d="M64.6,174.7l25.6-44.5h43.3c-1.6,2.4-2.8,4.5-3.5,6.2c-0.8,1.7-1.6,4.3-2.4,7.7L113,200.7
					c-0.5,1.9-0.8,4.1-0.8,6.4c0,1.3,0.3,2.7,0.8,4.3H76.6c1.5-2.3,2.7-4.3,3.5-6.1c0.8-1.8,1.6-4.4,2.5-7.7l13-50.2l-37,64.1H36.4
					l-4.2-63.9l-13.7,53.1c-0.6,2.1-0.8,4.2-0.8,6.4c0,1.3,0.3,2.7,0.8,4.3H0c1.5-2.3,2.7-4.3,3.5-6.1c0.8-1.8,1.6-4.4,2.5-7.7
					l14.6-56.7c0.5-1.9,0.8-4.1,0.8-6.4c0-1.3-0.3-2.7-0.8-4.3h41.1L64.6,174.7z"/>
				<path class="st1" d="M198.7,198.5l-5.2,12.9h-52.1c-6,0-10.5-1.3-13.5-4c-3.5-3.1-5.2-6.8-5.2-11.1c0-1.5,0.2-3.1,0.7-4.8
					l6.8-26.3c2.3-9.1,8.6-13.6,19-13.6h37.3c4.3,0,7.6,0.3,9.9,0.8c2.3,0.6,4.2,1.5,5.8,3c3.3,2.9,4.9,6.6,4.9,11.1
					c0,2-0.3,3.9-0.8,5.9l-3.8,14.8h-49.1l-1.3,5.5c-0.3,1.4-0.5,2.5-0.5,3.3c0,0.7,0.2,1.4,0.7,2c0.5,0.6,1,1,1.7,1.2
					c0.5,0.2,2.3,0.3,5.3,0.4h28.8C192.7,199.8,196.2,199.3,198.7,198.5z M156.5,175.7h19.8l1.7-6.7c0.3-1.1,0.4-1.9,0.4-2.6
					c0-2-1.4-3-4.2-3H165c-2.3,0-3.8,0.3-4.6,1c-0.8,0.7-1.5,2.2-2.2,4.6L156.5,175.7z"/>
				<path class="st1" d="M279.1,165.3c-1.8-1.2-4.9-1.8-9.4-2h-20.1c-2.7,0-4.6,0.4-5.6,1.2c-1.1,0.8-1.9,2.4-2.5,4.9l-6.1,23.3
					c-0.4,1.5-0.6,2.5-0.6,3.1c0,1.4,0.6,2.4,1.9,3c1.2,0.6,3.3,0.9,6.2,0.9h17c2.9,0,4.9-0.1,6.2-0.3c1.3-0.2,2.7-0.6,4.2-1.2
					l-5.4,13.2h-39.7c-6.7,0-11.4-1.1-14.2-3.4c-3.7-2.9-5.5-6.5-5.5-10.7c0-1.6,0.4-3.8,1.1-6.8l6.4-24.8c1.2-5.2,3.8-9.1,7.6-11.5
					c3.2-1.8,8-2.7,14.3-2.6h45.6L279.1,165.3z"/>
				<path class="st1" d="M319.3,130.1l-6.4,24.9c1.4-1.4,2.8-2.3,4.1-2.7c1.3-0.4,3.3-0.6,5.9-0.6h15.5c3.8,0,6.7,0.3,8.6,0.8
					c2,0.5,3.7,1.5,5.4,3c1.7,1.5,3,3.3,3.9,5.4c1,2.1,1.5,4.2,1.5,6.2c0,1.7-0.4,3.9-1.1,6.7l-6.9,26.9c-0.5,2-0.8,4.1-0.8,6.4
					c0,1.3,0.3,2.7,0.8,4.3h-34.4c1.6-2.3,2.8-4.3,3.5-6.1c0.7-1.8,1.6-4.4,2.4-7.7l6.8-26.3c0.4-1.7,0.7-2.9,0.7-3.8
					c0-2.9-2-4.3-6.1-4.3h-5.8c-2.5,0-4.3,0.5-5.3,1.3c-1,0.9-1.9,2.8-2.6,5.6l-7.8,30.5c-0.5,2-0.8,4.1-0.8,6.4
					c0,1.3,0.2,2.7,0.7,4.3h-34.4c1.5-2.3,2.7-4.3,3.5-6.1c0.8-1.8,1.6-4.4,2.5-7.7l14.6-56.7c0.5-2,0.8-4.1,0.8-6.4
					c0-1.3-0.3-2.7-0.8-4.3H319.3z"/>
				<path class="st1" d="M372.2,151.7h54.6c2.6,0,4.6,0.2,6.1,0.7c1.5,0.5,3,1.3,4.4,2.6c1.7,1.4,3,3.2,4,5.4c1,2.1,1.5,4.3,1.5,6.4
					c0,2.1-0.4,4.9-1.3,8.2l-6.6,25.8c-0.5,2-0.8,4.1-0.8,6.5c0,1.3,0.2,2.7,0.7,4.3H406c-0.5-1.5-0.7-3-0.7-4.5c0-0.2,0-0.7,0-1.4
					c-1.1,2.2-2.6,3.7-4.4,4.6c-1.8,0.9-4.2,1.3-7.2,1.3h-17.3c-5.5,0-9.7-1.2-12.7-3.7c-3.6-2.9-5.3-6.5-5.3-10.9
					c0-1.6,0.3-3.5,0.8-5.5l1.5-5.8c1.3-5.3,3.4-9,6.2-11c2.8-2,7.2-3,13.2-3H408c2.2,0,3.5-0.3,4.1-0.8c1.1-0.9,1.6-2.3,1.6-4.1
					c0-1.3-0.5-2.1-1.4-2.6c-0.9-0.5-2.6-0.7-5-0.7h-29c-5.7,0-9.9,0.7-12.7,2.3L372.2,151.7z M409.9,183.1h-14.2
					c-2.4,0-3.9,0.3-4.7,0.8c-0.8,0.6-1.4,1.9-2,3.9l-1.6,6c-0.3,1.3-0.5,2.1-0.5,2.5c0,1.3,0.4,2.2,1.2,2.7
					c0.8,0.5,2.3,0.7,4.5,0.7h7.2c2.6,0,4.2-0.2,4.9-0.6c0.7-0.4,1.3-1.6,1.8-3.6L409.9,183.1z"/>
				<path class="st1" d="M484.8,151.7l-1.4,5.5c1.2-2.3,2.4-3.9,3.7-4.5c1.2-0.7,3.3-1,6.3-1H513c5.5,0,9.8,1.6,12.7,4.8
					c2.7,3,4.1,6.6,4.1,10.6c0,2.6-0.5,5.8-1.4,9.5l-6.3,24.1c-0.5,2-0.8,4.1-0.8,6.4c0,1.3,0.3,2.7,0.8,4.3h-34.4
					c1.6-2.3,2.8-4.3,3.5-6.1c0.8-1.8,1.6-4.4,2.5-7.7l6.9-26.4c0.7-2.7,1-4.3,1-4.7c0-1.5-0.9-2.5-2.6-2.9
					c-0.4-0.1-1.5-0.2-3.1-0.2h-7c-2.3,0-4,0.4-4.9,1.1c-0.9,0.8-1.7,2.3-2.3,4.6l-8.2,31.7c-0.5,2-0.8,4.1-0.8,6.5
					c0,1.3,0.3,2.7,0.8,4.2H439c1.5-2.3,2.7-4.3,3.5-6.1c0.8-1.8,1.6-4.4,2.5-7.7l9.1-35.1c0.5-2.1,0.8-4.2,0.8-6.4
					c0-1.3-0.3-2.8-0.8-4.3H484.8z"/>
				<path class="st1" d="M572.6,156.9h-30c-0.1,1.9-0.3,3.8-0.7,5.6l-9.1,35.1c-0.9,3.4-1.7,6-2.4,7.7c-0.7,1.8-1.9,3.8-3.5,6.1
					h34.4c-0.5-1.5-0.8-3-0.8-4.2c0-2.3,0.3-4.5,0.8-6.5L572.6,156.9z"/>
				<path class="st1" d="M643.9,165.3c-1.8-1.2-4.9-1.8-9.4-2h-20.1c-2.7,0-4.6,0.4-5.6,1.2c-1.1,0.8-1.9,2.4-2.5,4.9l-6.1,23.3
					c-0.4,1.5-0.6,2.5-0.6,3.1c0,1.4,0.6,2.4,1.9,3c1.2,0.6,3.3,0.9,6.2,0.9h17c2.9,0,4.9-0.1,6.2-0.3c1.3-0.2,2.7-0.6,4.2-1.2
					l-5.4,13.2h-39.7c-6.6,0-11.4-1.1-14.2-3.4c-3.7-2.9-5.5-6.5-5.5-10.7c0-1.6,0.4-3.8,1.1-6.8l6.4-24.8c1.2-5.2,3.8-9.1,7.6-11.5
					c3.2-1.8,8-2.7,14.3-2.6h45.6L643.9,165.3z"/>
			</g>
			<g>
				<path class="st1" d="M654.4,47.1c0,0-98,75.9-98.1,76c-4,3.5-3.9,9,0.1,12.4c4,3.4,10.4,3.3,14.4-0.2
					C570.9,135.1,654.4,47.1,654.4,47.1z"/>
				<path class="st2" d="M638.8,61.2c0,0-66.4,68-68.2,70.8c-1.8,2.8-7.8,4.2-11.1,0.4"/>
			</g>
			<path class="st1" d="M553.1,49.3c-3.3,0-6.2,0.4-8.7,1.1c0-0.2,0-1,0-1l-7.4-0.1h-37.2l3,8.8c-0.9-1.2-1.9-2.2-3-3.2
				c-2.4-2.2-5.4-3.7-8.8-4.5c-2.9-0.7-6.7-1-11.6-1h-37.3c-3.2,0-6.1,0.4-8.7,1.1l0.3-1.1c0,0-16.8,0-23.7,0
				c0.5-1.9,3.6-13.8,3.6-13.8l-9.7,0.6l-34.9,2.1c0,0-2.1,8-2.8,11.1h-60.7c-7.4,0.1-12.5,1.2-16.2,3.4c-2.7,1.5-5,3.8-6.9,7
				c-1.2-2.1-2.8-3.9-4.6-5.4c-2.2-1.9-4.5-3.2-6.9-3.9c-2.2-0.7-4.9-1-8.2-1H207c0.8-3,1.4-4.7,1.8-5.6c0.6-1.4,1.6-3.1,2.9-5.1
				l7.3-10.9h-60.5c0,0-9.1,15.8-16.1,27.9c-0.7-10.7-1.8-27.9-1.8-27.9H83.1l3,9.2c0.3,1,0.4,1.7,0.4,2.1c0,1.7-0.2,3.3-0.5,4.6
				l-14.6,56.7c-1,3.7-1.7,5.7-2.1,6.7c-0.6,1.4-1.6,3.1-2.9,5l-7.4,10.9h41.8l-3.4-9.4c-0.4-1-0.4-1.6-0.4-1.9
				c0-1.6,0.2-3.1,0.6-4.6c0,0,1.9-7.3,2.8-10.7c0.6,8.6,1.7,26.6,1.7,26.6h32.8c0,0,8.5-14.7,13.2-22.8c0,0-0.1,0.2-0.1,0.2
				c-1,3.7-1.7,5.7-2.1,6.7c-0.6,1.4-1.6,3.1-2.9,5l-7.4,10.9h59.5l-2.8-8.2c0.9,1,1.9,2,3,3c4.3,3.5,10,5.3,17.1,5.3h17.3
				c2.6,0,4.9-0.4,6.9-0.9c0.1,0.3,0.3,0.9,0.3,0.9h89.2c5.3,0,9.2-0.3,12-0.9c3.3-0.7,6.3-2.2,9.2-4.4c2.5-1.9,4.5-4.1,6-6.7
				c0.5-0.9,1-1.9,1.4-3c0.4,1.1,0.9,2.3,1.5,3.3c1.7,3.2,4.2,5.8,7.3,7.8c2.1,1.5,5,2.5,8.5,3.1c2.9,0.5,6.5,0.7,10.9,0.7h35.2
				l1-3.7c4,2.5,9.1,3.7,15.4,3.7h104.4l-3.1-9.2c-0.4-1.1-0.4-1.7-0.4-2c0-1.7,0.2-3.3,0.5-4.7c0,0,7-26.9,7-27.2
				c0.3,0,0.7-0.1,1.4-0.1h10.2c3.7,0.1,5,1,5.3,1.3l8.6,7.8l10.3-39.6H553.1z M236.2,97.4c0,0-0.1,0-0.1,0s-2.8,0-4.9,0
				c0.4-1.3,0.6-2.3,0.7-2.6h5C236.6,95.8,236.3,97,236.2,97.4z M409.6,94.5c-0.2,0.9-0.4,1.8-0.5,2.7c-1,0.1-2,0.2-3.1,0.2h-7.8
				c-0.2,0-0.3,0-0.5,0c0.9-3.4,4.1-15.9,5.8-22.4h11.2L409.6,94.5z"/>
			<path class="st1" d="M571.6,0c-60,0-114.3,7.9-154.3,20.7h1.2l9.4,3.6c11.3-3.8,23.9-7.1,37.6-9.8l7.5,15l0.3-16.5
				c25.3-4.5,53.9-7,84.2-7c1.8,0,3.6,0,5.4,0l3.1,15.7l4.7-15.6c24.6,0.6,47.8,2.9,68.9,6.4l2.4,16l5.2-14.6
				c24.9,4.7,46.3,11.4,62.7,19.4l-7.3,15.5l15.4-11.5l-1.9-0.8c18,10,28.4,21.8,28.4,34.5c0,11.1-7.7,20.4-21.8,29.5l0,0l-18.2-0.6
				l10.6,6.1c-2.7,3.8-40.7,23.7-64.4,35.2v12.4c73.6-14.8,142.5-55.9,142.5-80.2C793.3,32.9,694.1,0,571.6,0z"/>
		</g>
		<g>
			<linearGradient id="SVGID_1_" gradientUnits="userSpaceOnUse" x1="693.356" y1="141.1963" x2="693.356" y2="14.0371">
				<stop  offset="0" style="stop-color:#FFFFFF"/>
				<stop  offset="0.2704" style="stop-color:#F5B6A7"/>
				<stop  offset="0.5314" style="stop-color:#EC7D6F"/>
				<stop  offset="0.7459" style="stop-color:#E7524F"/>
				<stop  offset="0.906" style="stop-color:#E42D3D"/>
				<stop  offset="0.9939" style="stop-color:#E31837"/>
			</linearGradient>
			<path class="st3" d="M715.2,106l-10.6-6.1l18.2,0.6c14-9.1,21.8-18.4,21.8-29.5c0-12.7-10.4-24.5-28.4-34.5l1.5,1.1l-14.9,11.2
				l7.3-15.5c-16.4-8-37.8-14.7-62.7-19.4l-5.2,14.6c0,0,136.6,22.5,8.7,112.5C674.5,129.7,712.6,109.9,715.2,106z"/>
		</g>
		<g>
			<path class="st4" d="M136.9,79.3l25.6-44.5h43.3c-1.6,2.4-2.8,4.4-3.5,6.2c-0.8,1.8-1.6,4.3-2.4,7.7l-14.7,56.7
				c-0.5,1.9-0.8,4.1-0.8,6.4c0,1.3,0.3,2.7,0.8,4.3h-36.4c1.5-2.3,2.7-4.3,3.5-6.1c0.8-1.8,1.6-4.4,2.5-7.7l13-50.2l-37,64.1h-22.1
				l-4.2-63.9l-13.7,53.1c-0.6,2.1-0.8,4.2-0.8,6.4c0,1.3,0.3,2.7,0.8,4.3H72.3c1.5-2.3,2.7-4.3,3.5-6.1c0.8-1.8,1.6-4.4,2.5-7.7
				l14.6-56.7c0.5-1.9,0.8-4.1,0.8-6.4c0-1.3-0.3-2.7-0.8-4.3H134L136.9,79.3z"/>
			<path class="st4" d="M208.2,56.4h54.6c2.6,0,4.6,0.2,6.1,0.7c1.5,0.5,3,1.3,4.4,2.6c1.7,1.4,3,3.2,4,5.4c1,2.1,1.5,4.3,1.5,6.4
				c0,2.1-0.4,4.9-1.3,8.2l-6.6,25.8c-0.5,2-0.8,4.1-0.8,6.5c0,1.3,0.2,2.7,0.7,4.3H242c-0.5-1.5-0.7-3-0.7-4.5c0-0.2,0-0.7,0-1.4
				c-1.2,2.2-2.6,3.7-4.4,4.6c-1.8,0.9-4.2,1.3-7.2,1.3h-17.3c-5.5,0-9.7-1.2-12.7-3.7c-3.6-2.9-5.3-6.5-5.3-10.9
				c0-1.6,0.3-3.5,0.8-5.5l1.5-5.8c1.3-5.3,3.4-9,6.2-11c2.8-2,7.2-3,13.2-3h27.9c2.2,0,3.5-0.3,4.1-0.8c1.1-0.9,1.6-2.3,1.6-4.1
				c0-1.3-0.5-2.1-1.4-2.6c-0.9-0.5-2.6-0.7-5-0.7h-29c-5.7,0-9.9,0.7-12.7,2.3L208.2,56.4z M246,87.7h-14.2c-2.4,0-3.9,0.3-4.7,0.8
				c-0.8,0.6-1.4,1.9-2,3.9l-1.6,6c-0.3,1.3-0.5,2.1-0.5,2.5c0,1.3,0.4,2.2,1.2,2.7c0.8,0.5,2.3,0.7,4.5,0.7h7.2
				c2.6,0,4.2-0.2,4.9-0.6c0.7-0.4,1.3-1.6,1.8-3.6L246,87.7z"/>
			<path class="st4" d="M358.5,56.4l-0.6,13.8c-2-0.9-4-1.4-6-1.7c-1.9-0.3-4.8-0.4-8.7-0.4h-25.2c-2.8,0-4.1,1-4.1,3.1
				c0,0.9,0.3,1.4,0.9,1.7c0.6,0.3,1.9,0.4,3.8,0.4h21.1c4.1,0,7.3,1.1,9.5,3.2c2.7,2.6,4,5.5,4,8.9c0,1.5-0.3,3.5-1,5.9l-2.4,9.2
				c-0.8,3.1-1.7,5.6-2.7,7.3c-1,1.7-2.4,3.3-4.2,4.6c-2,1.5-4.2,2.6-6.4,3.1c-2.3,0.5-5.8,0.8-10.5,0.8h-50.6l1.4-13.5
				c2.4,0.8,4.1,1.2,5.2,1.3c1.1,0.1,4.8,0.3,11.1,0.5h23.6c2.8,0,4.3-1.4,4.3-4.2c0-0.8-0.2-1.3-0.6-1.5c-0.4-0.3-1.2-0.4-2.4-0.4
				h-17.6c-3.7,0-6.4-0.2-8.4-0.5c-1.9-0.3-3.5-0.9-4.8-1.8c-3.5-2.5-5.3-6-5.3-10.6c0-1.3,0.1-2.4,0.4-3.5l3.1-12.1
				c1.9-5.7,4.3-9.3,7.3-11c2.5-1.5,6.7-2.3,12.6-2.4H358.5z"/>
			<path class="st4" d="M424.7,56.4l-3,11.7H398l-7.8,30.1c-0.2,0.6-0.2,1.2-0.2,1.8c0,1.6,0.6,2.8,1.9,3.5c1.3,0.7,3.4,1,6.3,1h7.8
				c3.6,0,7-0.6,10.2-1.8l-3.5,13.5H383c-4,0-7.2-0.2-9.8-0.6c-2.5-0.4-4.5-1.1-5.8-2c-2.1-1.4-3.8-3.2-5-5.3
				c-1.2-2.2-1.8-4.5-1.8-6.9c0-1.4,0.2-3,0.7-4.8l7.4-28.4h-12.3l3-11.7h12.3l2.9-11.4l29.8-1.8L401,56.4H424.7z"/>
			<path class="st4" d="M491.8,103.2l-5.2,12.9h-52.1c-6,0-10.5-1.3-13.5-4c-3.5-3.1-5.2-6.8-5.2-11.1c0-1.5,0.2-3.1,0.7-4.8
				l6.8-26.3c2.3-9.1,8.6-13.6,19-13.6h37.3c4.3,0,7.6,0.3,9.9,0.8c2.3,0.6,4.2,1.5,5.8,3c3.3,2.9,4.9,6.6,4.9,11.1
				c0,2-0.3,3.9-0.8,5.9L495.7,92h-49.1l-1.3,5.5c-0.3,1.4-0.5,2.5-0.5,3.3c0,0.7,0.2,1.4,0.7,2c0.5,0.6,1,1,1.7,1.2
				c0.5,0.2,2.3,0.3,5.3,0.4h28.8C485.8,104.4,489.3,104,491.8,103.2z M449.6,80.3h19.8l1.7-6.7c0.3-1.1,0.4-1.9,0.4-2.6
				c0-2-1.4-3-4.2-3h-9.2c-2.3,0-3.8,0.3-4.6,1c-0.8,0.7-1.5,2.2-2.2,4.6L449.6,80.3z"/>
			<path class="st4" d="M537.1,56.4c-0.1,1.4-0.2,3.2-0.2,5.2c0,1.5-0.2,3.1-0.4,4.9c2.1-4,4.3-6.6,6.6-8c2.3-1.4,5.7-2.1,10.1-2.1
				h16.5l-5.1,19.5c-2.1-1.9-5.5-3-10-3.1h-10.2c-2.6,0-4.5,0.4-5.6,1.1c-1.2,0.8-2,2.1-2.5,4l-7.1,27.4c-0.5,2-0.8,4.1-0.8,6.5
				c0,1.3,0.3,2.7,0.8,4.2h-34.4c1.5-2.3,2.7-4.3,3.5-6.1c0.8-1.8,1.6-4.4,2.5-7.7l9.1-35.1c0.5-2.1,0.8-4.2,0.8-6.4
				c0-1.3-0.3-2.8-0.8-4.3H537.1z"/>
		</g>
	</g>
	<g>
		<path class="st1" d="M80.5,235.2h9.8l4.8,29.2h-7.9l-0.8-6.2H75l-3.5,6.2h-8.4L80.5,235.2z M84.4,241.2L84.4,241.2l-6.3,11.4h7.5
			L84.4,241.2z"/>
		<path class="st1" d="M126.5,248.8c-1.9,9.3-4.2,16.1-14.8,16.1c-6.6,0-11.7-2.3-11.7-9.2c0-2.3,0.3-4.2,0.6-5.5l3.3-15h7.9
			l-3.5,16.5c-0.3,1.4-0.5,2.5-0.5,3.2c0,2.4,1.4,4.2,4.1,4.2c5,0,5.8-6,6.8-10.7l2.9-13.2h7.7L126.5,248.8z"/>
		<path class="st1" d="M138.1,240.9h-7.3l1.3-5.8h22.5l-1.3,5.8H146l-5,23.4h-7.9L138.1,240.9z"/>
		<path class="st1" d="M166,264.9c-9.5,0-13-5.9-13-11.9c0-11.1,5.8-18.3,17.1-18.3c9.5,0,13,5.9,13,11.9
			C183.1,257.6,177.3,264.9,166,264.9z M169.6,240.4c-6,0-8.5,7-8.5,11.9c0,3.7,1.4,6.7,5.4,6.7c6,0,8.5-7,8.5-11.9
			C175.1,243.5,173.7,240.4,169.6,240.4z"/>
		<path class="st1" d="M189.9,235.2h12.2l0.5,19.6h0.1l9.2-19.6h12.5l-6.2,29.2h-7.6l5.3-23.9h-0.1l-11.5,23.9h-7.4l-1.1-23.9h-0.1
			l-5.1,23.9h-7.1L189.9,235.2z"/>
		<path class="st1" d="M238,264.9c-9.5,0-13-5.9-13-11.9c0-11.1,5.8-18.3,17.1-18.3c9.5,0,13,5.9,13,11.9
			C255.1,257.6,249.3,264.9,238,264.9z M241.6,240.4c-6,0-8.5,7-8.5,11.9c0,3.7,1.4,6.7,5.4,6.7c6,0,8.5-7,8.5-11.9
			C247.1,243.5,245.7,240.4,241.6,240.4z"/>
		<path class="st1" d="M265.9,240.9h-7.3l1.3-5.8h22.5l-1.3,5.8h-7.3l-5,23.4h-7.9L265.9,240.9z"/>
		<path class="st1" d="M285.6,235.2h7.9l-6.1,29.2h-7.9L285.6,235.2z"/>
		<path class="st1" d="M310.3,264.4h-9.6l-3.8-29.2h7.8l2,22.1h0.1l11.3-22.1h8.4L310.3,264.4z"/>
		<path class="st1" d="M329.6,235.2h20.5l-1.1,5.5h-12.8l-1.3,6h12.2l-1.2,5.5h-12.1l-1.4,6.6h13.3l-1.1,5.5h-21.1L329.6,235.2z"/>
		<path class="st1" d="M385.4,241.8c-1.5-0.7-3.6-1.3-6.4-1.3c-3.1,0-5.6,0.5-5.6,2.8c0,4.1,11.3,2.6,11.3,11.5
			c0,8.1-7.5,10.2-14.3,10.2c-3,0-6.5-0.7-9-1.5l1.8-5.9c1.5,1,4.6,1.7,7.2,1.7c2.4,0,6.2-0.5,6.2-3.5c0-4.7-11.3-2.9-11.3-11.2
			c0-7.5,6.6-9.8,13-9.8c3.6,0,7,0.4,8.9,1.3L385.4,241.8z"/>
		<path class="st1" d="M392.9,235.2h7.8c6.4,0,12.8,0.7,12.8,8c0,7.3-5.9,11-13,11h-4l-2.2,10.2h-7.8L392.9,235.2z M397.8,248.6h2.1
			c3.1,0,5.9-1.1,5.9-4.6c0-2.8-1.9-3.4-4-3.4h-2.3L397.8,248.6z"/>
		<path class="st1" d="M419,235.2h20.5l-1.1,5.5h-12.8l-1.3,6h12.2l-1.2,5.5H423l-1.4,6.6h13.3l-1.1,5.5h-21.1L419,235.2z"/>
		<path class="st1" d="M466.6,242.2c-2.5-1.4-4.8-1.8-7.3-1.8c-7.8,0-11,5.5-11,11c0,5.2,3.3,7.6,8,7.6c2.8,0,5.4-0.6,7.4-1.6
			l-0.8,6.3c-1.9,0.6-5.1,1.1-7.8,1.1c-9.4,0-14.8-5.6-14.8-13.6c0-9.7,6.8-16.6,17.8-16.6c5.6,0,8.7,1,10.3,1.5L466.6,242.2z"/>
		<path class="st1" d="M472.5,235.2h7.9l-6.1,29.2h-7.9L472.5,235.2z"/>
		<path class="st1" d="M495.1,235.2h9.8l4.8,29.2h-7.9l-0.8-6.2h-11.3l-3.5,6.2h-8.4L495.1,235.2z M499,241.2L499,241.2l-6.3,11.4
			h7.5L499,241.2z"/>
		<path class="st1" d="M518.6,235.2h7.9l-4.9,23.4h12.2l-1.2,5.8h-20.1L518.6,235.2z"/>
		<path class="st1" d="M542.2,235.2h7.9l-6.1,29.2h-7.9L542.2,235.2z"/>
		<path class="st1" d="M573.5,241.8c-1.5-0.7-3.6-1.3-6.4-1.3c-3.1,0-5.6,0.5-5.6,2.8c0,4.1,11.3,2.6,11.3,11.5
			c0,8.1-7.5,10.2-14.3,10.2c-3,0-6.5-0.7-9-1.5l1.8-5.9c1.5,1,4.6,1.7,7.2,1.7c2.4,0,6.2-0.5,6.2-3.5c0-4.7-11.3-2.9-11.3-11.2
			c0-7.5,6.6-9.8,13-9.8c3.6,0,7,0.4,8.9,1.3L573.5,241.8z"/>
		<path class="st1" d="M585.2,240.9H578l1.3-5.8h22.5l-1.3,5.8h-7.3l-5,23.4h-7.9L585.2,240.9z"/>
		<path class="st1" d="M622.3,241.8c-1.5-0.7-3.6-1.3-6.4-1.3c-3.1,0-5.6,0.5-5.6,2.8c0,4.1,11.3,2.6,11.3,11.5
			c0,8.1-7.5,10.2-14.3,10.2c-3,0-6.5-0.7-9-1.5l1.8-5.9c1.5,1,4.6,1.7,7.2,1.7c2.4,0,6.2-0.5,6.2-3.5c0-4.7-11.3-2.9-11.3-11.2
			c0-7.5,6.6-9.8,13-9.8c3.6,0,7,0.4,8.9,1.3L622.3,241.8z"/>
	</g>
</g>
</svg>
